<?xml version="1.0" encoding="utf-8"?>
<!-- Generator: Adobe Illustrator 23.0.1, SVG Export Plug-In . SVG Version: 6.00 Build 0)  -->
<svg version="1.1" id="Layer_1" xmlns="http://www.w3.org/2000/svg" xmlns:xlink="http://www.w3.org/1999/xlink" x="0px" y="0px"
	 viewBox="0 0 24 24" style="enable-background:new 0 0 24 24;" xml:space="preserve">
<style type="text/css">
	.st0{fill:#FFFFFF;}
</style>
<g>
	<path class="st0" d="M9.6,0.5H1.8c-0.7,0-1.3,0.6-1.3,1.3v7.8c0,0.7,0.6,1.3,1.3,1.3h7.8c0.7,0,1.3-0.6,1.3-1.3V1.8
		C11,1.1,10.4,0.5,9.6,0.5L9.6,0.5z M9.6,0.5"/>
	<path class="st0" d="M13.9,11h7.8c0.7,0,1.3-0.6,1.3-1.3V1.8c0-0.7-0.6-1.3-1.3-1.3h-7.8c-0.7,0-1.3,0.6-1.3,1.3v7.8
		C12.6,10.4,13.2,11,13.9,11L13.9,11z M13.9,11"/>
	<path class="st0" d="M9.6,12.6H1.8c-0.7,0-1.3,0.6-1.3,1.3v7.8c0,0.7,0.6,1.3,1.3,1.3h7.8c0.7,0,1.3-0.6,1.3-1.3V14
		C11,13.2,10.4,12.6,9.6,12.6L9.6,12.6z M9.6,12.6"/>
	<path class="st0" d="M22.7,17h-4v-4c0-0.4-0.4-0.8-0.8-0.8c-0.4,0-0.8,0.4-0.8,0.8v4h-4c-0.4,0-0.8,0.4-0.8,0.8
		c0,0.4,0.4,0.8,0.8,0.8h4v4c0,0.4,0.4,0.8,0.8,0.8c0.4,0,0.8-0.4,0.8-0.8v-4h4c0.4,0,0.8-0.4,0.8-0.8C23.5,17.4,23.1,17,22.7,17
		L22.7,17z M22.7,17"/>
</g>
</svg>
